<!-- icon666.com - MILLIONS OF FREE VECTOR ICONS --><svg id="Layer_1" enable-background="new 0 0 53 53" viewBox="0 0 53 53" xmlns="http://www.w3.org/2000/svg"><g><g><g><path d="m21.0454617 47.8808975c-2.8476563 0-5.7661133-.078125-8.9648438-.234375-2.6264648-.1279297-6.28125-.6240234-7.6948242-3.4453125-.6152344-1.2265625-.6328125-2.640625-.6469727-3.7763672l-.3149414-25.267579c-.055664-4.4384766.3295899-8.8935552 3.4960938-11.4208987 2.4863281-1.984375 5.7539063-2.0576172 9.1606445-1.9580078l16.0737286.46875c2.6928711.0791016 5.3876953.4345703 6.8598633 2.4824216.859375 1.1943359 1.0458984 2.6669922 1.1635742 4.0722661.3720703 4.4433594.4067383 8.9521475.1025391 13.4003897-.027832.4150391-.3862305.7167969-.7993164.6972656-.4130859-.0283203-.7250977-.3857422-.6967773-.7988281.2983398-4.3740234.2646484-8.8056631-.1015625-13.1738272-.1040039-1.2460942-.25-2.4375005-.8862305-3.3222661-1.1464844-1.59375-3.5361328-1.7949216-5.6860352-1.8574216l-16.0737286-.46875c-3.1191406-.0917969-6.0922852-.0371094-8.1811524 1.6298825-2.7954102 2.2314453-2.9790039 6.4501958-2.9316406 10.2294922l.3149414 25.2675796c.0126953 1.0341797.0273438 2.2050781.487793 3.1240234 1.0498047 2.0957031 3.9863281 2.5 6.4272461 2.6191406 6.6040039.3222656 12.0048828.3095703 18.059082-.0410156.40625-.0341797.7680664.2919922.7919922.7060547.0244141.4130859-.2915039.7675781-.7050781.7919922-3.175293.1835937-6.1733399.2753906-9.2543945.2753906z"></path></g></g><g><g><path d="m33.0449715 43.9307022c-.1254883 0-.2529297-.03125-.3696289-.0976563-.3603516-.2041016-.4868164-.6621094-.2822266-1.0224609.5146484-.9072266.418457-2.2226563-.2573242-3.5185547-.3930645-.7529297-.9135723-1.4355469-1.4648418-2.1582031-.3505859-.4589844-.7011719-.9199219-1.0209961-1.3994141-2.3671875-3.5546875-3.0146484-7.4091816-1.8720703-11.1484394.2255859-.7373047.9731445-1.3486328 1.6137695-1.6259766.6079102-.265625 1.1982422-.2832031 1.6616211-.0566406.9921856.4863281 1.5126934 1.4638672 1.8178692 2.1582031.668457 1.5175781.9926758 3.1962891.9370117 4.8554688-.0141602.4130859-.3754883.7441406-.7744141.7246094-.4140625-.0146484-.7382813-.3613281-.7246094-.7753906.0478516-1.4345703-.2324219-2.8876953-.8110332-4.2001953-.3344727-.7607422-.6855469-1.2099609-1.1044922-1.4150391-.0249023-.0097656-.1923828-.0205078-.4755859.1171875-.4057617.2001953-.6606445.5097656-.7055664.65625-1.0068359 3.2949219-.4238281 6.7109375 1.6855469 9.8779316.3022461.4541016.6342773.8876953.965332 1.3222656.5654278.7402344 1.1499004 1.5068359 1.6025372 2.3740234.9121094 1.7490234.9990234 3.5996094.2319336 4.9521484-.1381837.2431642-.3916017.3798829-.6528321.3798829z"></path></g></g><g><g><path d="m36.9658699 28.8974972c-.0043945 0-.0087891 0-.0131836 0-.4145508-.0068359-.7441406-.3486328-.7373047-.7626953l.1420898-8.2714844c.0112305-.6503906.0224609-1.3232422-.1787109-1.8828125-.1479492-.4101563-.4892578-.8515625-.9189453-.9111328-.4985352-.0654297-1.0053749.3935547-1.2226563.8662109-.2944336.6435547-.296875 1.4375-.2988281 2.2060547l-.0219727 8.0078125c-.0014648.4140625-.3369179.7480469-.75.7480469-.0004883 0-.0014648 0-.0024414 0-.4140625-.0009766-.7490234-.3378906-.7475586-.7519531l.0219727-8.0078125c.0024414-.8417969.0053711-1.8876953.4350586-2.8271484.5385742-1.1738281 1.6870117-1.8759756 2.7949219-1.7275381.9370117.1318359 1.75.8554678 2.121582 1.8896475.2944336.8183594.2802734 1.6669922.2675781 2.4160156l-.1420898 8.2714844c-.0073242.4101561-.3417969.7373046-.7495117.7373046z"></path></g></g><g><g><path d="m41.0708504 30.4834347c-.0224609 0-.0454102-.0009766-.0683594-.0029297-.4125977-.0371094-.7167969-.4013672-.6796875-.8144531.1362305-1.5117188.1738281-3.046875.1118164-4.5654297-.0263672-.6416016-.0849609-1.3623047-.4462891-1.7988281-.2431641-.2919922-.6601563-.4599609-1.0371094-.4150391-.4921875.0576172-1.1010742.3662109-1.2280273.6230469-.1845703.3701172-.6347656.5253906-1.0048828.3388672-.371582-.1835938-.5234375-.6328125-.3398438-1.0048828.449707-.9082031 1.6806641-1.3623047 2.3989258-1.4472656.8925781-.1015625 1.7958984.2607422 2.3657227.9482422.6591797.7949219.7539063 1.8076172.7905273 2.6943359.0644531 1.5839844.0253906 3.1855469-.1166992 4.7617188-.0351562.3896483-.3623047.6826171-.7460937.6826171z"></path></g></g><g><g><path d="m44.5942879 30.3955441c-.0551758 0-.1113281-.0058594-.1674805-.0185547-.4038086-.0927734-.65625-.4951172-.5639648-.8984375.2548828-1.1152344.3139648-2.2558594.1757813-3.390625-.0488281-.4013672-.2226563-1.3574219-.7744141-1.5644531-.206543-.0791016-.4912109-.0458984-.7412109.0869141-.2592773.1367188-.5053711.3779297-.7314453.7148438-.2314453.3457031-.6982422.4355469-1.0410156.2050781-.34375-.2314453-.4355469-.6972656-.2050781-1.0410156.3662109-.5449219.7954102-.9501953 1.2763672-1.2050781.6357422-.3369141 1.3535156-.3974609 1.9711914-.1650391.9560547.3603516 1.5556641 1.3242188 1.7348633 2.7871094.1591797 1.3076172.0908203 2.6220703-.203125 3.90625-.0791017.3476561-.3881838.5830077-.7304689.5830077z"></path></g></g><g><g><path d="m44.7407722 43.3301163c-.2768555 0-.543457-.1542969-.6738281-.4199219-.828125-1.6855469-.2539063-3.3535156.4165039-4.7617188.3530273-.7412109.7856445-1.4287109 1.2036133-2.09375.394043-.6259766.765625-1.2177734 1.0732422-1.8447266.6689453-1.3652344 1.0727539-2.9746113 1.2709961-5.064455.0585938-.6113281.1035156-1.3115234-.1030273-1.8847656-.1489258-.4130859-.5219727-.8447266-.9467773-.8691406-.434082-.0292969-1.0415039.1347656-1.4311523 1.0498047-.1611328.3808594-.6000977.5585938-.9833984.3964844-.3813477-.1621094-.5585938-.6025391-.3964844-.984375.5537109-1.3017578 1.6318359-2.0302734 2.8999023-1.9599609.9770508.0585938 1.8886719.8046875 2.269043 1.8583984.3115234.8652344.2587891 1.7626953.1850586 2.5361328-.2158203 2.2753906-.6660156 4.04883-1.4174805 5.5820332-.3422852.6982422-.7529297 1.3515625-1.1499023 1.9824219-.4135742.6582031-.8041992 1.2792969-1.1191406 1.9404297-.5424805 1.1396484-.9692383 2.3466797-.4243164 3.4570313.1826172.3710938.0288086.8203125-.3427734 1.0029297-.1064455.0527342-.2192385.0771483-.3300784.0771483z"></path></g></g><g><g><path d="m32.8081551 51.2490616c-.769043 0-1.5664043-.1230469-2.1660137-.7314453-.5751953-.5830078-.7021484-1.4033203-.7861328-1.9462891-.0473633-.3056641-.1293945-.6611328-.2158203-1.0380859-.2714844-1.1835938-.5791016-2.5244141-.2304688-3.5820313.4384766-1.3320313 1.6577148-1.3173828 2.3769531-1.3203125l.3266582-.0009766c2.0859375-.0478516 4.2167969-.1855469 6.2773438-.3183594 1-.0644531 1.9990234-.1289063 2.9970703-.1845703l5.159668-.2851563h.0019531c.4580078-.0224609 1.1484375-.0595703 1.7197266.3759766.8061523.6142578.7700195 1.6875.7529297 2.203125l-.1069336 3.1142578c-.0229492.6533203-.065918 1.8710938-.9848633 2.5537109-.574707.4277344-1.2646484.4628906-1.7685547.4892578l-12.824707.6552734c-.1728516.0087892-.3500977.0156252-.5288086.0156252zm-1.1215802-7.1181641c-.7260742 0-.7783203.0644531-.8520508.2890625-.2177734.6611328.0512695 1.8349609.2675781 2.7783203.0952148.4160156.184082.8066406.2363281 1.1445313.074707.4833984.1542969.9013672.371582 1.1210938.303709.3076172.9584942.3037109 1.5507793.2714844l12.8242188-.6552734c.3295898-.0166016.7397461-.0380859.9501953-.1943359.2993164-.2226563.3598633-.8056641.3808594-1.4033203l.1069336-3.1113281c.0068359-.2021484.0268555-.8154297-.1640625-.9609375-.1328125-.1015625-.5039063-.0830078-.7285156-.0703125l-5.1601563.2851563c-.9931641.0546875-1.987793.1191406-2.9829102.1835938-2.0756836.1337891-4.2226563.2724609-6.3393555.3212891-.1225586.0019531-.248045.0039063-.3710918.0009766-.0312498-.0000004-.0615233-.0000004-.0903319-.0000004z"></path></g></g><g><g><g><path d="m33.4707527 10.8789434h-24.9965801c-.4140625 0-.75-.3359375-.75-.75s.3359375-.75.75-.75h24.9965801c.4140625 0 .75.3359375.75.75s-.3359375.75-.75.75z"></path></g></g><g><g><path d="m14.7163601 14.8701544c-.1035156 0-.2070313-.0078125-.3095703-.0224609-.875-.1298828-1.6401367-.7958984-1.9956055-1.7382813-.2915039-.7714844-.2753906-1.5849609-.2211914-2.2792969.0317383-.4121094.3950195-.7148438.8056641-.6894531.4130859.0322266.7216797.3935547.6894531.8066406-.0410156.5283203-.0581055 1.1367188.1293945 1.6328125.1586914.4199219.4853516.7353516.8125.7832031.4462891.0673828.9082031-.3339844 1.1162109-.7451172.2861328-.5634766.3188477-1.2861328.3271484-1.9785156.0078125-.6533203-.0107422-1.3300781-.3242188-1.7802734-.3730469-.5351563-1.0185547-.8837895-1.3837891-.7558594-.4360352.1601563-.5869141.3242188-.7446289 1.1074219-.081543.4052734-.4794922.6650391-.8837891.5869141-.4057617-.0820313-.668457-.4775391-.5869141-.8837891.168457-.8339844.4526367-1.7626958 1.7006836-2.2187505 1.1601563-.4267578 2.453125.3359375 3.1289063 1.3066411.5673828.8144531.6040039 1.7978516.59375 2.65625-.0102539.8310547-.0576172 1.7880859-.4892578 2.6396484-.4877928.959961-1.4277342 1.5722657-2.3647459 1.5722657z"></path></g></g><g><g><path d="m21.9277859 14.8701544c-.1040039 0-.2075195-.0078125-.3100586-.0224609-.8754883-.1298828-1.640625-.7958984-1.9960938-1.7382813-.2910156-.7705078-.2749023-1.5849609-.2207031-2.2792969.0317383-.4121094.3920898-.7148438.8056641-.6894531.4130859.0322266.7216797.3935547.6894531.8066406-.0429688.5556641-.0576172 1.1386719.1289063 1.6328125.1586914.4199219.4853516.7353516.8129883.7832031.4360352.0625.9072266-.3339844 1.1157227-.7441406.2861328-.5634766.3188477-1.2861328.3271484-1.9794922.0083008-.6533203-.0097656-1.3291016-.3242188-1.7802734-.3730469-.5351563-1.0161133-.8837895-1.3837891-.7558594-.4360352.1601563-.5869141.3242188-.7441406 1.1064453-.0820313.4072266-.4819336.6660156-.8833008.5878906-.4057617-.0820313-.6689453-.4775391-.5874023-.8828125.1679688-.8349609.4516602-1.7636724 1.7001953-2.219727 1.159668-.4267578 2.4526367.3359375 3.1289063 1.3066411.5683594.8144531.6044922 1.7988281.59375 2.6572266-.0107422.8691406-.0576172 1.7890625-.4897461 2.6386719-.4863282.9599609-1.4262696 1.5722656-2.3632813 1.5722656z"></path></g></g><g><g><path d="m29.1377468 14.8701544c-.1035156 0-.2070313-.0078125-.3095703-.0224609-.875-.1298828-1.6401367-.7958984-1.9956055-1.7382813-.2915039-.7714844-.2753906-1.5849609-.2211914-2.2792969.03125-.4121094.3891602-.7148438.8056641-.6894531.4130859.0322266.7216797.3935547.6894531.8066406-.0410156.5283203-.0581055 1.1367188.1293945 1.6328125.1586914.4199219.4853516.7353516.8125.7832031.4487305.0673828.9082031-.3339844 1.1162109-.7451172.2861328-.5634766.3188477-1.2861328.3271484-1.9785156.0078125-.6533203-.0107422-1.3300781-.324707-1.7802734-.3730469-.5351563-1.0170898-.8837895-1.3833008-.7558594-.4360352.1601563-.5869141.3242188-.7446289 1.1074219-.0820313.4052734-.4760742.6650391-.8837891.5869141-.4057617-.0820313-.668457-.4775391-.5869141-.8837891.168457-.8339844.4526367-1.7626958 1.7006836-2.2187505 1.159668-.4267578 2.4526367.3359375 3.128418 1.3066411.5678711.8134766.6044903 1.7978516.5942383 2.65625-.0102539.8310547-.0576172 1.7880859-.4892578 2.6396484-.4877929.959961-1.4277343 1.5722657-2.364746 1.5722657z"></path></g></g></g><g><g><g><path d="m29.273489 20.4892941h-20.7993164c-.4140625 0-.75-.3359375-.75-.75s.3359375-.75.75-.75h20.7993164c.4140625 0 .75.3359375.75.75s-.3359375.75-.75.75z"></path></g></g><g><g><path d="m14.7148952 24.480505c-.1025391 0-.2050781-.0078125-.3071289-.0224609-.8764648-.1298828-1.6416016-.796875-1.996582-1.7392578-.2915039-.7724609-.2753906-1.5849609-.2211914-2.2783203.0317383-.4121094.3950195-.7148438.8056641-.6894531.4130859.0322266.7216797.3935547.6894531.8066406-.0410156.5283203-.0581055 1.1347656.1293945 1.6318359.1586914.4208984.4848633.7363281.8125.7841797.4516602.0673828.9086914-.3349609 1.1166992-.7451172.2856445-.5644531.3183594-1.2871094.3266602-1.9794922.0078125-.6533203-.0107422-1.3291016-.324707-1.7802734-.3725586-.5351563-1.0180664-.8828125-1.3833008-.7558594-.4360352.1601563-.5869141.3251953-.7446289 1.1074219-.0825195.4052734-.4794922.6650391-.8837891.5869141-.4057617-.0820313-.668457-.4775391-.5869141-.8837891.168457-.8339844.4526367-1.7607422 1.699707-2.21875 1.1606445-.4248037 2.453125.3359375 3.1298828 1.3066406.5673828.8154297.6040039 1.7988281.59375 2.65625-.0107422.8691406-.0576172 1.7880859-.4892578 2.6396484-.4882812.9609375-1.4291991 1.5732422-2.3662109 1.5732422z"></path></g></g><g><g><path d="m21.9258327 24.480505c-.1025391 0-.2050781-.0078125-.3071289-.0224609-.8769531-.1298828-1.6420898-.796875-1.9970703-1.7392578-.2910156-.7714844-.2749023-1.5839844-.2207031-2.2783203.0317383-.4121094.3920898-.7148438.8056641-.6894531.4130859.0322266.7216797.3935547.6894531.8066406-.0410156.5283203-.0581055 1.1357422.1289063 1.6318359.1586914.4208984.4853516.7363281.8129883.7841797.4472656.0712891.9082031-.3339844 1.1157227-.7451172.2861328-.5634766.3188477-1.2861328.3271484-1.9794922.0083008-.6533203-.0097656-1.3291016-.3242188-1.7802734-.3735352-.5351563-1.0161133-.8828125-1.3837891-.7558594-.4360352.1601563-.5869141.3251953-.7441406 1.1074219-.0820313.4052734-.4819336.6650391-.8833008.5869141-.40625-.0820313-.6689453-.4775391-.5874023-.8837891.1679688-.8330078.4516602-1.7607422 1.6992188-2.21875 1.1621094-.4248037 2.4526367.3359375 3.1298828 1.3066406.5688477.8164063.6044922 1.7998047.59375 2.6572266-.0107422.8681641-.0576172 1.7880859-.4892578 2.6396484-.4873048.9599609-1.4282228 1.5722656-2.3657228 1.5722656z"></path></g></g></g><g><g><g><path d="m27.9849148 31.7012081h-19.5107422c-.4140625 0-.75-.3359375-.75-.75s.3359375-.75.75-.75h19.5107422c.4140625 0 .75.3359375.75.75s-.3359375.75-.75.75z"></path></g></g><g><g><path d="m14.7163601 35.692421c-.1035156 0-.2070313-.0078125-.3095703-.0224609-.875-.1298828-1.6401367-.7958984-1.9956055-1.7382813-.2915039-.7714844-.2753906-1.5849609-.2211914-2.2792988.0317383-.4130859.3950195-.7080078.8056641-.6894531.4130859.0322266.7216797.3935547.6894531.8066406-.0410156.5283222-.0581055 1.1367207.1293945 1.6328144.1586914.4199219.4853516.7353516.8125.7832031.4462891.0703125.9082031-.3339844 1.1162109-.7451172.2861328-.5634766.3188477-1.2861328.3271484-1.9785175.0078125-.6533203-.0107422-1.3300781-.3242188-1.7802734-.3730469-.5351563-1.0185547-.8828125-1.3837891-.7558594-.4360352.1601563-.5869141.3242188-.7446289 1.1074219-.081543.40625-.4794922.6660156-.8837891.5869141-.4057617-.0820313-.668457-.4775391-.5869141-.8837891.168457-.8339844.4526367-1.7626953 1.7006836-2.21875 1.1601563-.4277344 2.453125.3359375 3.1289063 1.3066406.5673828.8144531.6040039 1.7978516.59375 2.65625-.0102539.8310566-.0576172 1.7880878-.4892578 2.6396503-.4877928.959961-1.4277342 1.5722657-2.3647459 1.5722657z"></path></g></g><g><g><path d="m21.9277859 35.692421c-.1040039 0-.2075195-.0078125-.3100586-.0224609-.8754883-.1298828-1.640625-.7958984-1.9960938-1.7382813-.2910156-.7705078-.2749023-1.5849609-.2207031-2.2792988.0317383-.4130859.3920898-.7080078.8056641-.6894531.4130859.0322266.7216797.3935547.6894531.8066406-.0429688.555666-.0576172 1.1386738.1289063 1.6328144.1586914.4199219.4853516.7353516.8129883.7832031.4360352.0615234.9072266-.3339844 1.1157227-.7441406.2861328-.5634766.3188477-1.2861328.3271484-1.9794941.0083008-.6533203-.0097656-1.3291016-.3242188-1.7802734-.3730469-.5351563-1.0161133-.8828125-1.3837891-.7558594-.4360352.1601563-.5869141.3242188-.7441406 1.1064453-.0820313.4072266-.4819336.6669922-.8833008.5878906-.4057617-.0820313-.6689453-.4775391-.5874023-.8828125.1679688-.8349609.4516602-1.7636719 1.7001953-2.2197266 1.159668-.4277344 2.4526367.3359375 3.1289063 1.3066406.5683594.8144531.6044922 1.7988281.59375 2.6572266-.0107422.8691425-.0576172 1.7890644-.4897461 2.6386738-.4863282.959961-1.4262696 1.5722657-2.3632813 1.5722657z"></path></g></g></g></g></svg>