<!-- icon666.com - MILLIONS OF FREE VECTOR ICONS --><svg version="1.1" id="Capa_1" xmlns="http://www.w3.org/2000/svg" xmlns:xlink="http://www.w3.org/1999/xlink" x="0px" y="0px" viewBox="0 0 69.252 69.252" style="enable-background:new 0 0 69.252 69.252;" xml:space="preserve"><g><path style="fill: rgb(0, 0, 0);" d="M68.758,54.681c-1.157-2.716-3.196-4.943-4.688-7.453c-1.031-1.735-1.898-3.584-2.739-5.443 c0.025-0.119-0.023-0.233-0.134-0.296c-0.464-1.03-0.924-2.061-1.396-3.078c0.589-0.548,0.913-1.242,1.188-2.295 c0.932-3.568,0.036-8.733-0.026-12.457c-0.074-4.431,0.005-8.85,0.01-13.28c0.002-1.697,0.56-4.737-0.778-6.244 c-1.48-1.668-4.884-1.03-6.687-1.061C49,2.996,44.486,2.946,39.976,3.023c-8.923,0.153-18.182,0.23-27.039,1.405 C7.41,5.162,7.645,8.121,7.721,13.271c0.125,8.413,0.588,16.996,2.074,25.292C6.727,43.609,4.167,49.517,2.06,55.02 c-0.337,0.881-0.704,1.852-0.83,2.804c-0.37-0.234-0.912-0.178-1.013,0.365c-0.238,1.282-0.28,2.565-0.127,3.862 c0.125,1.058,0.19,2.477,1.065,3.177c0.136,0.109,0.29,0.152,0.442,0.165c0.053,0.125,0.148,0.225,0.298,0.245 c6.408,0.863,13.125,0.393,19.585,0.381c7.459-0.013,14.917-0.091,22.375-0.12c6.805-0.027,14.521,0.959,21.216-0.17 c4.758-0.802,3.512-3.894,4.08-7.777c0.021-0.141,0-0.261-0.035-0.37C69.391,56.764,69.235,55.799,68.758,54.681z M64.055,49.58 c-0.164,0.02-0.329,0.043-0.494,0.065c-0.521,0.069-1.055,0.109-1.566,0.233c-0.274,0.067-0.208,0.478,0.065,0.483 c0.537,0.012,1.081-0.067,1.616-0.112c0.214-0.018,0.431-0.033,0.647-0.058c0.264,0.6,0.532,1.19,0.791,1.806 c0.073,0.173,0.158,0.351,0.246,0.532c-0.68,0.081-1.356,0.229-2.029,0.345c-0.258,0.045-0.201,0.497,0.063,0.463 c0.733-0.095,1.484-0.161,2.212-0.308c0.394,0.798,0.781,1.647,0.704,2.485c-1.108,0.208-2.2,0.304-3.367,0.158 c0.023-0.114,0.019-0.237-0.027-0.356c0.057-0.089,0.084-0.197,0.051-0.318c-0.724-2.644-1.772-5.311-3.129-7.792 c1.046,0.052,2.118,0.123,3.168,0.094C63.36,48.054,63.711,48.81,64.055,49.58z M41.604,52.243c0.978-0.019,1.955-0.03,2.933-0.054 c0.243,0.885,0.512,1.76,0.84,2.613c-1.168,0.062-2.312,0.119-3.47,0.181c0.062-0.123,0.098-0.264,0.07-0.429 C41.847,53.788,41.726,53.016,41.604,52.243z M37.783,52.313c0.759-0.01,1.518-0.03,2.278-0.042 c0.213,0.882,0.426,1.761,0.628,2.636c0.013,0.054,0.04,0.09,0.06,0.134c-0.982,0.051-1.978,0.108-2.952,0.154 c0.008-0.044,0.023-0.082,0.022-0.133C37.797,54.147,37.796,53.23,37.783,52.313z M37.787,47.357 c0.388-0.008,0.779-0.015,1.168-0.022c0.184,0.944,0.388,1.885,0.605,2.824c-0.602,0.01-1.203,0.017-1.805,0.027 c-0.001-0.29-0.011-0.579-0.011-0.869C37.744,48.673,37.774,48.015,37.787,47.357z M37.739,45.552 c-0.031-0.328-0.084-0.651-0.154-0.97c0.304-0.009,0.608-0.022,0.912-0.032c0.042,0.32,0.087,0.64,0.137,0.96 C38.336,45.524,38.036,45.538,37.739,45.552z M40.09,44.494c0.841-0.029,1.683-0.053,2.523-0.089 c0.044,0.305,0.096,0.608,0.159,0.91c-0.817,0.038-1.629,0.076-2.444,0.115C40.254,45.116,40.173,44.805,40.09,44.494z M40.742,47.3c0.834-0.015,1.665-0.032,2.502-0.048c0.148,0.539,0.299,1.077,0.438,1.614c0.106,0.407,0.207,0.816,0.31,1.226 c-0.911,0.008-1.822,0.027-2.733,0.041C41.102,49.185,40.929,48.241,40.742,47.3z M44.379,44.33 c1.074-0.048,2.151-0.084,3.224-0.138c0.033,0.31,0.062,0.618,0.111,0.935c-1.021,0.026-2.043,0.064-3.065,0.106 C44.563,44.93,44.481,44.627,44.379,44.33z M45.152,47.213c0.989-0.024,1.978-0.051,2.966-0.089 c0.237,0.982,0.537,1.963,0.898,2.922c-1.059,0.008-2.119,0.02-3.179,0.029c-0.104-0.415-0.209-0.831-0.311-1.246 C45.395,48.294,45.274,47.754,45.152,47.213z M49.882,52.055c0.439,0.893,0.933,1.729,1.477,2.49 c-1.52,0.039-3.044,0.105-4.568,0.181c-0.107-0.869-0.273-1.728-0.462-2.582C47.513,52.112,48.699,52.089,49.882,52.055z M49.356,44.106c0.867-0.046,1.739-0.078,2.605-0.128c0.118,0.371,0.239,0.742,0.364,1.113c-0.905-0.012-1.815,0.01-2.723,0.021 C49.523,44.776,49.439,44.441,49.356,44.106z M50.99,50.031c-0.124-0.324-0.249-0.647-0.36-0.976 c-0.225-0.672-0.405-1.352-0.574-2.035c0.961-0.051,1.925-0.093,2.881-0.171c0.389,1.058,0.798,2.111,1.23,3.157 C53.109,50.013,52.048,50.023,50.99,50.031z M53.958,43.859c0.524-0.032,1.05-0.06,1.573-0.093 c0.306,0.491,0.608,0.981,0.912,1.471c-0.651-0.043-1.306-0.065-1.96-0.091C54.316,44.711,54.132,44.289,53.958,43.859z M54.969,51.897c0.385,0.883,0.778,1.752,1.178,2.616c-1.127-0.02-2.26-0.013-3.397,0.004c-0.006-0.049-0.005-0.096-0.024-0.15 c-0.282-0.803-0.611-1.587-0.941-2.371C52.847,51.963,53.909,51.932,54.969,51.897z M55.033,46.656 c0.713-0.076,1.426-0.153,2.135-0.251c0.728,1.182,1.441,2.37,2.137,3.569c-1.046,0.006-2.095,0.013-3.142,0.02 C55.808,48.872,55.431,47.761,55.033,46.656z M59.39,51.749c0.335-0.012,0.56-0.178,0.699-0.397c0.64,1.141,1.264,2.295,1.852,3.48 c-1.459-0.15-2.942-0.229-4.434-0.281c-0.246-0.901-0.496-1.805-0.765-2.713C57.624,51.808,58.508,51.78,59.39,51.749z M9.776,19.156c-0.105-2.738-0.763-6.166-0.164-8.828c1.102-4.898,6.186-4.157,10.077-4.352c6.115-0.306,12.231-0.461,18.353-0.527 c3.222-0.035,6.444-0.078,9.667-0.078c2.004,0,7.902-0.929,9.666,0.119c0.516,0.306,0.853,0.773,1.075,1.332 C54.22,6.609,49.947,6.759,45.72,6.813c-0.308,0.004-0.308,0.474,0,0.478c4.279,0.055,8.606,0.209,12.888-0.015 c0.205,0.761,0.243,1.647,0.222,2.538c-0.036-0.019-0.061-0.048-0.109-0.054c-0.85-0.114-1.757-0.061-2.65,0 c-0.102-0.354-0.388-0.562-0.717-0.626c-0.182-0.311-0.503-0.539-0.969-0.545c-6.646-0.085-13.292-0.068-19.937,0.127 c-3.164,0.093-6.328,0.212-9.489,0.387c-2.868,0.159-7.803-0.361-10.425,0.836c-2.364,1.079-1.907,2.624-2.082,5.422 c-0.382,6.125,0.101,12.132,1.157,18.165c0.021,0.121,0.081,0.21,0.153,0.285c-0.266,0.238-0.169,0.75,0.29,0.792 C27.091,35.81,41.588,34.98,54.43,32.05c0.209,0.153,0.484,0.197,0.737,0.144c-0.105,0.156-0.033,0.441,0.221,0.473 c1.058,0.137,2.161,0.089,3.132-0.385c0.276-0.135,0.072-0.521-0.198-0.469c-0.973,0.187-1.896,0.363-2.891,0.279 c0.224-0.131,0.393-0.361,0.407-0.705c0.002-0.047,0.002-0.093,0.004-0.14c0.039-0.154,0.043-0.314,0.013-0.471 c0.018-0.487,0.023-0.974,0.038-1.461c0.698-0.129,1.389-0.251,2.1-0.277c0.275-0.01,0.553,0.004,0.83,0.008 c0.008,1.05,0.015,2.1,0.025,3.149c0.012,1.201,0.136,2.166-0.065,3.017c-5.031,0.387-10.13,0.905-15.096,1.803 c-0.211,0.038-0.162,0.382,0.05,0.373c4.931-0.207,9.909-0.804,14.799-1.509c-0.361,0.697-1.06,1.33-2.409,1.977 c-1.003,0.481-2.634,0.492-3.734,0.666c-13.437,2.123-27.831,1.951-41.186-0.681c-0.04-0.008-0.074,0.002-0.111,0.001 C10.644,31.61,10.015,25.408,9.776,19.156z M58.405,12.869c-0.798,0.038-1.543,0.194-2.315,0.241 c0.008-0.921,0.013-1.842,0.024-2.763c0.879,0.059,1.77,0.109,2.605-0.003c0.041-0.005,0.061-0.032,0.093-0.047 c-0.048,1.07-0.153,2.117-0.132,2.927c0.034,1.314,0.039,2.627,0.059,3.94c-0.004,0-0.005-0.003-0.009-0.003 c-0.616,0.032-1.208,0.204-1.822,0.259c-0.286,0.025-0.571,0.032-0.856,0.028c0.009-1.23,0.023-2.46,0.033-3.69 c0.853,0.065,1.738-0.008,2.441-0.444C58.718,13.195,58.651,12.857,58.405,12.869z M58.747,17.697 c0.014,1.072,0.044,2.144,0.048,3.216c-0.936,0.133-1.799,0.207-2.774-0.059c0.008-0.917,0.018-1.834,0.024-2.751 C56.974,18.157,57.943,18.088,58.747,17.697z M58.799,21.692c0,0.339,0.007,0.678,0.006,1.018c-0.002,0.533,0.003,1.067,0.003,1.6 c-0.938,0.252-1.825,0.461-2.822,0.432c0.017-1.106,0.021-2.213,0.031-3.319C56.878,21.716,57.886,21.868,58.799,21.692z M58.809,25.052c0.002,1.074-0.001,2.147,0.006,3.221c-0.957-0.079-2.05,0.15-2.907,0.398c0.03-1.101,0.047-2.201,0.065-3.301 C56.905,25.443,57.92,25.384,58.809,25.052z M54.082,30.166c-6.508,0.689-12.953,1.828-19.491,2.342 c-6.561,0.515-13.137,0.695-19.701,1.132c0.038-0.085,0.061-0.18,0.047-0.292c-0.61-4.773-0.915-9.565-0.939-14.378 c-0.014-2.829-0.833-6.082,2.43-7.524c1.822-0.805,5.575-0.225,7.583-0.3c10.046-0.376,20.081-0.497,30.131-0.189 C54.118,17.363,53.968,23.761,54.082,30.166z M4.582,54.361c0.748-1.694,1.524-3.377,2.28-5.068 c1.497-3.349,3.148-6.668,4.247-10.173c8.136,1.374,16.206,2.48,24.487,2.408c4.428-0.039,8.865-0.296,13.27-0.755 c2.849-0.297,6.611-0.279,9.29-1.383c0.244-0.101,0.462-0.202,0.663-0.307c0.418,0.766,0.823,1.526,1.22,2.284 c-0.814,0.02-1.64,0.197-2.386,0.448c-0.276,0.093-0.165,0.519,0.122,0.441c0.888-0.244,1.721-0.265,2.596-0.246 c0.307,0.593,0.613,1.185,0.912,1.777c-0.317,0.015-0.634,0.033-0.951,0.019c-0.644-0.029-1.266-0.138-1.888-0.299 c-0.303-0.079-0.427,0.377-0.129,0.468c0.976,0.297,2.202,0.575,3.269,0.421c0.399,0.799,0.803,1.594,1.187,2.402 c-1.014-0.013-2.047,0.058-3.052,0.106c-0.015,0.001-0.021,0.011-0.033,0.015c-0.881-1.573-1.888-3.067-3.027-4.423 c-0.031-0.048-0.066-0.091-0.109-0.13c-0.171-0.201-0.334-0.412-0.511-0.607c-0.441-0.485-1.16-0.118-1.275,0.407 c-0.502-0.003-1.008,0.007-1.511,0.005c-0.318-0.612-1.12-0.467-1.485,0.005c-13.08-0.005-26.328,0.421-39.334,1.368 c-0.204-0.532-0.982-0.797-1.28-0.152c-1.567,3.392-3.089,6.799-4.237,10.361c-0.198,0.613-0.734,2.141-0.332,2.821 c-0.247,0.361-0.099,0.964,0.473,0.967c9.545,0.051,19.106-0.283,28.648-0.506c8.745-0.204,18.202,0.429,26.832-0.996 c0.077-0.013,0.132-0.044,0.188-0.075c1.126,0.219,2.314,0.29,3.454,0.102c-0.192,0.524-0.6,1.037-1.356,1.524 c-0.776,0.5-4.921,0.256-5.871,0.312c-8.477,0.498-16.957,0.73-25.441,1.078c-3.915,0.16-7.829,0.339-11.743,0.506 c-4.164,0.178-9.599,1.24-13.7,0.527c-0.652,0.017-1.305,0.035-1.957,0.052C3.179,58.538,2.67,56.636,4.582,54.361z M36.137,50.21 c-1.197,0.021-2.395,0.031-3.592,0.054c0.043-0.913,0.078-1.835,0.075-2.752c0.805-0.029,1.611-0.062,2.415-0.089 c0.351-0.012,0.707-0.016,1.06-0.026C36.047,48.317,36.068,49.262,36.137,50.21z M34.049,45.702c-0.499,0.016-1,0.028-1.5,0.043 c-0.029-0.348-0.068-0.693-0.119-1.035c1.376-0.029,2.751-0.064,4.127-0.102c-0.102,0.326-0.196,0.656-0.263,1.003 C35.545,45.642,34.793,45.678,34.049,45.702z M32.454,52.39c0-0.006,0-0.012,0.001-0.018c1.295-0.01,2.591-0.028,3.887-0.043 c0.115,0.962,0.245,1.889,0.352,2.734c0.008,0.068,0.033,0.124,0.058,0.179c-0.676,0.029-1.363,0.069-2.031,0.09 c-1.114,0.035-2.229,0.067-3.343,0.101C32.521,54.841,32.417,53.646,32.454,52.39z M30.737,55.452 c-1.382,0.042-2.764,0.084-4.147,0.125c0.003-0.012,0.01-0.019,0.012-0.031c0.166-1.041,0.297-2.087,0.394-3.136 c1.392-0.003,2.786-0.02,4.179-0.029c0.054,1.074,0.004,2.05-0.376,2.276C30.501,54.834,30.533,55.247,30.737,55.452z M30.913,45.791c-1.296,0.036-2.59,0.075-3.887,0.11c-0.034-0.363-0.078-0.726-0.126-1.088c1.37-0.018,2.742-0.051,4.113-0.077 C30.968,45.086,30.933,45.438,30.913,45.791z M30.994,50.295c-1.288,0.026-2.576,0.048-3.863,0.077 c0.036-0.886,0.04-1.773,0.009-2.659c1.248-0.048,2.492-0.09,3.739-0.137c0.009,0.582,0.023,1.164,0.034,1.743 C30.917,49.534,30.952,49.882,30.994,50.295z M25.371,55.614c-1.158,0.035-2.315,0.069-3.473,0.105 c0.048-1.091,0.138-2.19,0.239-3.293c1.135,0.005,2.272-0.011,3.408-0.011c-0.041,0.984-0.103,1.97-0.202,2.961 C25.333,55.464,25.345,55.543,25.371,55.614z M22.319,50.479c0.082-0.866,0.158-1.732,0.22-2.597 c1.013-0.033,2.025-0.074,3.038-0.112c0.018,0.879,0.023,1.758,0.014,2.636C24.5,50.433,23.409,50.45,22.319,50.479z M22.64,46.024 c0.014-0.385,0.02-0.768,0.022-1.151c0.942-0.005,1.886-0.031,2.829-0.04c0.014,0.371,0.026,0.74,0.038,1.11 C24.565,45.97,23.602,45.994,22.64,46.024z M20.745,50.518c-1.141,0.032-2.284,0.049-3.424,0.085 c0.075-0.862,0.129-1.725,0.173-2.585c1.134-0.021,2.269-0.054,3.404-0.088C20.814,48.787,20.767,49.652,20.745,50.518z M20.834,55.753c-1.376,0.044-2.751,0.082-4.126,0.133c0.161-1.154,0.303-2.322,0.429-3.497c1.197,0.015,2.397,0.018,3.595,0.026 c0.012,1.125,0.05,2.236,0.095,3.303C20.826,55.732,20.832,55.741,20.834,55.753z M17.548,46.211c0.01-0.444,0.029-0.89,0.028-1.33 c1.27,0.006,2.543-0.002,3.815-0.005c-0.092,0.394-0.172,0.793-0.241,1.198C19.948,46.114,18.748,46.158,17.548,46.211z M11.256,56.112c-1.142,0.054-2.285,0.099-3.426,0.163c-0.016-0.023-0.032-0.046-0.052-0.066c0.289-1.344,0.713-2.716,1.212-4.086 c0.105,0.078,0.23,0.138,0.398,0.143c0.703,0.02,1.409,0.023,2.113,0.04c-0.124,1.255-0.226,2.512-0.252,3.763 C11.248,56.085,11.256,56.097,11.256,56.112z M9.476,50.874c0.374-0.949,0.766-1.894,1.174-2.822 c0.425,0.007,0.85,0.005,1.275,0.008c-0.025,0.347-0.049,0.694-0.085,1.035c-0.059,0.565-0.122,1.131-0.183,1.699 C10.931,50.823,10.202,50.843,9.476,50.874z M11.323,46.542c0.261-0.577,0.52-1.149,0.772-1.706 c0.021,0.002,0.035,0.011,0.057,0.011c0.194,0.003,0.39,0.002,0.584,0.005c-0.33,0.499-0.517,1.056-0.629,1.643 C11.847,46.513,11.584,46.522,11.323,46.542z M13.107,52.337c0.823,0.017,1.648,0.019,2.472,0.032 c-0.088,1.197-0.16,2.389-0.207,3.57c-0.96,0.038-1.921,0.071-2.88,0.114C12.75,54.829,12.939,53.585,13.107,52.337z M13.318,50.733c0.061-0.472,0.121-0.944,0.185-1.413c0.057-0.414,0.132-0.831,0.201-1.249c0.768-0.001,1.537-0.022,2.305-0.032 c-0.112,0.869-0.213,1.741-0.295,2.617C14.916,50.683,14.116,50.704,13.318,50.733z M13.872,46.391 c-0.001-0.523-0.083-1.036-0.283-1.532c0.967,0.013,1.938,0.009,2.907,0.016c-0.084,0.462-0.153,0.931-0.226,1.399 C15.47,46.313,14.67,46.343,13.872,46.391z M66.267,61.493c-3.734,0.165-7.498,0.533-11.213,0.838 c-0.108,0.009-0.109,0.161,0,0.169c3.495,0.235,7.18,0.211,10.703-0.274c-0.565,0.697-1.32,1.255-2.443,1.581 c-2.415,0.701-6.188,0.057-8.756,0.074c-6.161,0.041-12.323,0.133-18.484,0.121c-11.01-0.022-22.784-0.889-33.708,0.643 c0.15-0.866-0.254-1.744-0.403-2.614c-0.096-0.557-0.161-1.116-0.217-1.676c0.128,0.184,0.275,0.363,0.457,0.534 c2.593,2.432,8.648,0.791,11.738,0.686c6.524-0.221,13.048-0.416,19.571-0.646c6.197-0.219,12.395-0.627,18.592-0.779 c3.261-0.08,6.524-0.103,9.785-0.189c1.645-0.044,3.683,0.165,5.267-0.515C66.895,60.174,66.626,60.87,66.267,61.493z" fill="#1D1D1B"></path></g></svg>