<!-- icon666.com - MILLIONS OF FREE VECTOR ICONS --><svg version="1.1" id="Capa_1" xmlns="http://www.w3.org/2000/svg" xmlns:xlink="http://www.w3.org/1999/xlink" x="0px" y="0px" viewBox="0 0 305.432 305.432" style="enable-background:new 0 0 305.432 305.432;" xml:space="preserve"><g><path style="fill: rgb(255, 215, 0);" d="M57.372,299.306c60.743,11.547,121.928,3.867,183.057,0.364c6.037-0.343,9.551-4.417,10.198-10.198 c6.293-56.147,0.245-113.356,8.822-169.177c5.145-33.477,5.727-65.084-20.538-89.739C192.571-12.945,113.296,8.398,56.784,0.104 c-1.186-0.174-2.29-0.109-3.34,0.049c-4.786,0.37-9.393,3.612-9.567,9.785c-2.665,93.253,2.899,186.37,6.01,279.535 C50.029,293.742,52.863,298.447,57.372,299.306z M192.821,29.632c8.746,2.611,17.253,6.037,25.362,10.769 c18.536,10.807,23.72,27.968,23.943,46.591c-1.338-0.212-2.817-0.141-4.411,0.288c-18.313,4.96-36.453,7.141-54.984,4.552 C185.821,71.056,189.867,50.437,192.821,29.632z M64.067,21.174c35.376,2.964,73.656-1.615,109.021,4.009 c-3.334,25.08-8.67,49.838-11.993,74.923c-0.56,4.259,3.514,8.953,7.49,9.834c24.372,5.406,48.283,3.769,72.253-2.431 c-1.316,10.927-3.269,21.767-4.324,31.601c-5.009,46.678-1.343,93.911-5.434,140.747c-53.629,3.459-107.786,9.736-161.111,1.006 C66.95,194.311,62.191,107.797,64.067,21.174z" fill="#010002"></path><path style="fill: rgb(255, 215, 0);" d="M92.1,151.358c11.259-5.211,22.159-10.568,34.696-11.536c14.055-1.082,23.143,11.009,35.109,15.447 c17.291,6.424,30.481,0.511,47.331-5.037c8.289-2.725,4.737-15.86-3.617-13.108c-16.524,5.439-28.86,11.34-45.525,1.594 c-8.887-5.2-15.822-9.556-25.944-11.863c-16.66-3.791-34.397,6.043-48.908,12.765C77.284,143.303,84.197,155.019,92.1,151.358z" fill="#010002"></path><path style="fill: rgb(255, 215, 0);" d="M92.1,202.72c11.259-5.211,22.159-10.568,34.696-11.536c14.055-1.082,23.143,11.003,35.109,15.447 c17.291,6.424,30.481,0.511,47.331-5.037c8.289-2.725,4.737-15.86-3.617-13.108c-16.524,5.439-28.86,11.34-45.525,1.594 c-8.887-5.2-15.822-9.556-25.944-11.863c-16.66-3.791-34.397,6.043-48.908,12.765C77.284,194.659,84.197,206.38,92.1,202.72z" fill="#010002"></path><path style="fill: rgb(255, 215, 0);" d="M92.1,254.075c11.259-5.211,22.159-10.568,34.696-11.536c14.055-1.082,23.143,11.003,35.109,15.447 c17.291,6.424,30.481,0.511,47.331-5.037c8.289-2.725,4.737-15.86-3.617-13.108c-16.524,5.439-28.86,11.34-45.525,1.594 c-8.887-5.2-15.822-9.556-25.944-11.863c-16.66-3.791-34.397,6.043-48.908,12.765C77.284,246.02,84.197,257.736,92.1,254.075z" fill="#010002"></path></g></svg>