<!-- icon666.com - MILLIONS OF FREE VECTOR ICONS --><svg xmlns="http://www.w3.org/2000/svg" id="Icons" viewBox="0 0 60 60"><path d="M36,34H35a3,3,0,0,0,0,6h1a3,3,0,0,0,0-6Zm0,4H35a1,1,0,0,1,0-2h1a1,1,0,0,1,0,2Z" fill="#000000" style="fill: rgb(255, 215, 0);"></path><path d="M45,34H44a3,3,0,0,0-3,3v8a3,3,0,0,0,3,3h1a3,3,0,0,0,3-3V37A3,3,0,0,0,45,34Zm1,11a1,1,0,0,1-1,1H44a1,1,0,0,1-1-1V37a1,1,0,0,1,1-1h1a1,1,0,0,1,1,1Z" fill="#000000" style="fill: rgb(255, 215, 0);"></path><path d="M36,42H35a3,3,0,0,0,0,6h1a3,3,0,0,0,0-6Zm0,4H35a1,1,0,0,1,0-2h1a1,1,0,0,1,0,2Z" fill="#000000" style="fill: rgb(255, 215, 0);"></path><path d="M36,50H35a3,3,0,0,0,0,6h1a3,3,0,0,0,0-6Zm0,4H35a1,1,0,0,1,0-2h1a1,1,0,0,1,0,2Z" fill="#000000" style="fill: rgb(255, 215, 0);"></path><path d="M27,34H26a3,3,0,0,0,0,6h1a3,3,0,0,0,0-6Zm0,4H26a1,1,0,0,1,0-2h1a1,1,0,0,1,0,2Z" fill="#000000" style="fill: rgb(255, 215, 0);"></path><path d="M27,42H26a3,3,0,0,0,0,6h1a3,3,0,0,0,0-6Zm0,4H26a1,1,0,0,1,0-2h1a1,1,0,0,1,0,2Z" fill="#000000" style="fill: rgb(255, 215, 0);"></path><path d="M27,50H26a3,3,0,0,0,0,6h1a3,3,0,0,0,0-6Zm0,4H26a1,1,0,0,1,0-2h1a1,1,0,0,1,0,2Z" fill="#000000" style="fill: rgb(255, 215, 0);"></path><path d="M45,50H44a3,3,0,0,0,0,6h1a3,3,0,0,0,0-6Zm0,4H44a1,1,0,0,1,0-2h1a1,1,0,0,1,0,2Z" fill="#000000" style="fill: rgb(255, 215, 0);"></path><path d="M45,20H26a3,3,0,0,0-3,3v6a3,3,0,0,0,3,3H45a3,3,0,0,0,3-3V23A3,3,0,0,0,45,20Zm1,9a1,1,0,0,1-1,1H26a1,1,0,0,1-1-1V23a1,1,0,0,1,1-1H45a1,1,0,0,1,1,1Z" fill="#000000" style="fill: rgb(255, 215, 0);"></path><path d="M58,26H56V13a5,5,0,0,0-4.967-5H32V2a2,2,0,0,0-2-2H7.828A2.982,2.982,0,0,0,5.707.879L.879,5.707A2.978,2.978,0,0,0,0,7.828V46a2,2,0,0,0,2,2H19v8a4,4,0,0,0,4,4H48a4,4,0,0,0,4-4V42h5a3,3,0,0,0,3-3V28A2,2,0,0,0,58,26ZM46,13.172V16H26V13a3,3,0,0,1,3-3H47.061A5.273,5.273,0,0,0,46,13.172ZM6,3.414V5A1,1,0,0,1,5,6H3.414ZM2,46V8H5A3,3,0,0,0,8,5V2H30V8H29a5.006,5.006,0,0,0-5,5v3H23a4.093,4.093,0,0,0-.5.05A9.018,9.018,0,1,0,19,26.469V46ZM19,20v3.884a6.986,6.986,0,0,1-1.274,1.033L15,18.787v-6.7A6.917,6.917,0,0,1,20.624,16.8,3.985,3.985,0,0,0,19,20Zm-5.65,0L15.9,25.728A6.957,6.957,0,0,1,7.08,20ZM7.08,18A7,7,0,0,1,13,12.08V18ZM50,56a2,2,0,0,1-2,2H23a2,2,0,0,1-2-2V20a2,2,0,0,1,2-2H48a2,2,0,0,1,2,2ZM48,16V13.172a3.118,3.118,0,0,1,2.7-3.158c.086-.008.172-.013.257-.014h.062a2.971,2.971,0,0,1,2,.779A3.009,3.009,0,0,1,54,13V39a2.966,2.966,0,0,0,.184,1H52V20A4,4,0,0,0,48,16ZM58,39a1,1,0,0,1-2,0V28h2Z" fill="#000000" style="fill: rgb(255, 215, 0);"></path><path d="M30.293,24.293l-2,2a1,1,0,1,0,1.414,1.414l2-2a1,1,0,0,0-1.414-1.414Z" fill="#000000" style="fill: rgb(255, 215, 0);"></path><path d="M36.293,24.293l-2,2a1,1,0,1,0,1.414,1.414l2-2a1,1,0,0,0-1.414-1.414Z" fill="#000000" style="fill: rgb(255, 215, 0);"></path><path d="M42.293,24.293l-2,2a1,1,0,1,0,1.414,1.414l2-2a1,1,0,0,0-1.414-1.414Z" fill="#000000" style="fill: rgb(255, 215, 0);"></path><path d="M30,14h1a1,1,0,0,0,0-2H30a1,1,0,0,0,0,2Z" fill="#000000" style="fill: rgb(255, 215, 0);"></path><path d="M35,14h7a1,1,0,0,0,0-2H35a1,1,0,0,0,0,2Z" fill="#000000" style="fill: rgb(255, 215, 0);"></path><path d="M16,39H15V32a1,1,0,0,0-2,0v7H11V35a1,1,0,0,0-2,0v4H7V31a1,1,0,0,0-2,0v8a2,2,0,0,0,2,2h9a1,1,0,0,0,0-2Z" fill="#000000" style="fill: rgb(255, 215, 0);"></path></svg>